<svg xmlns="http://www.w3.org/2000/svg" width="200" height="200" viewBox="0 0 200 200">
  <defs>
    <linearGradient id="grad2" x1="0%" y1="0%" x2="100%" y2="100%">
      <stop offset="0%" style="stop-color:#fbbf24;stop-opacity:1" />
      <stop offset="100%" style="stop-color:#f59e0b;stop-opacity:1" />
    </linearGradient>
  </defs>
  <rect width="200" height="200" fill="#1e293b" rx="15"/>
  <rect x="30" y="50" width="140" height="100" fill="url(#grad2)" rx="10"/>
  <circle cx="70" cy="90" r="15" fill="white"/>
  <path d="M 70 80 L 75 90 L 70 100 L 65 90 Z" fill="#f59e0b"/>
  <rect x="95" y="70" width="60" height="8" fill="white" rx="4"/>
  <rect x="95" y="90" width="50" height="8" fill="white" opacity="0.9" rx="4"/>
  <rect x="95" y="110" width="40" height="8" fill="white" opacity="0.8" rx="4"/>
  <polygon points="100,30 105,45 120,45 108,55 113,70 100,60 87,70 92,55 80,45 95,45" fill="#fbbf24"/>
  <text x="100" y="175" font-family="Arial, sans-serif" font-size="16" font-weight="bold" fill="#fbbf24" text-anchor="middle">GOLD</text>
</svg>
