<svg xmlns="http://www.w3.org/2000/svg" width="200" height="200" viewBox="0 0 200 200">
  <defs>
    <linearGradient id="grad3" x1="0%" y1="0%" x2="100%" y2="100%">
      <stop offset="0%" style="stop-color:#a78bfa;stop-opacity:1" />
      <stop offset="100%" style="stop-color:#8b5cf6;stop-opacity:1" />
    </linearGradient>
  </defs>
  <rect width="200" height="200" fill="#1e293b" rx="15"/>
  <rect x="30" y="50" width="140" height="100" fill="url(#grad3)" rx="10"/>
  <polygon points="70,65 75,80 90,80 78,90 83,105 70,95 57,105 62,90 50,80 65,80" fill="white"/>
  <rect x="100" y="70" width="55" height="8" fill="white" rx="4"/>
  <rect x="100" y="90" width="50" height="8" fill="white" opacity="0.9" rx="4"/>
  <rect x="100" y="110" width="45" height="8" fill="white" opacity="0.8" rx="4"/>
  <circle cx="45" cy="35" r="5" fill="#a78bfa"/>
  <circle cx="155" cy="35" r="5" fill="#a78bfa"/>
  <circle cx="160" cy="165" r="4" fill="#8b5cf6"/>
  <circle cx="40" cy="170" r="4" fill="#8b5cf6"/>
  <text x="100" y="175" font-family="Arial, sans-serif" font-size="16" font-weight="bold" fill="#a78bfa" text-anchor="middle">PREMIUM</text>
</svg>
